# xmcd
#
# Track frame offsets:
#	150
#	10929
#	25972
#	41694
#	56497
#	57147
#	66921
#	81776
#	95147
#	109468
#	117566
#	131717
#	142356
#
# Disc length: 2128 seconds
# Revision: 0
# Processed by: cddbd v1.5.2PL0 Copyright (c) Steve Scherf et al.
# Submitted via: dBpowerAMP V12.0
#
DISCID=c6084e0d
DTITLE=Austin Lounge Lizards - Home and Deranged
DYEAR=2013
DGENRE=Country
TTITLE0=Enough About Me
TTITLE1=Spelunking with Joe King Carrasco
TTITLE2=I Lied
TTITLE3=My Bonnie Johnson
TTITLE4=Intro to "Thank You..."
TTITLE5=Thank You for Touching Me There
TTITLE6=Black Helicopters
TTITLE7=If I Saw You All the Time
TTITLE8=Too Big to Fail
TTITLE9=Dumb Dumb Dumb
TTITLE10=Got a Big Stupid On
TTITLE11=Who Needs You?
TTITLE12=Would You Like to Start a Band?
EXTD=
EXTT0=
EXTT1=
EXTT2=
EXTT3=
EXTT4=
EXTT5=
EXTT6=
EXTT7=
EXTT8=
EXTT9=
EXTT10=
EXTT11=
EXTT12=
PLAYORDER=
